<svg width="25" height="24" viewBox="0 0 25 24" fill="none" xmlns="http://www.w3.org/2000/svg">
<path d="M12.7905 2C7.27719 2 2.79053 6.48667 2.79053 12C2.79053 17.5133 7.27719 22 12.7905 22C18.3039 22 22.7905 17.5133 22.7905 12C22.7905 6.48667 18.3039 2 12.7905 2ZM12.7905 3.66667C17.403 3.66667 21.1239 7.3875 21.1239 12C21.1254 13.9948 20.4098 15.9237 19.1077 17.435C17.8056 18.9462 16.0037 19.9391 14.0305 20.2325V14.43H16.4039L16.7764 12.0192H14.0305V10.7025C14.0305 9.7025 14.3597 8.81333 15.2955 8.81333H16.7997V6.71C16.5355 6.67417 15.9764 6.59667 14.9197 6.59667C12.713 6.59667 11.4197 7.76167 11.4197 10.4167V12.0192H9.15136V14.43H11.4197V20.2117C9.47365 19.8914 7.70489 18.8896 6.42944 17.3853C5.15398 15.881 4.45493 13.9722 4.45719 12C4.45719 7.3875 8.17803 3.66667 12.7905 3.66667Z" fill="#3FB6D2"/>
</svg>
