<svg width="25" height="24" viewBox="0 0 25 24" fill="none" xmlns="http://www.w3.org/2000/svg">
<path d="M12.7915 9C11.9959 9 11.2328 9.31607 10.6702 9.87868C10.1076 10.4413 9.79153 11.2044 9.79153 12C9.79153 12.7956 10.1076 13.5587 10.6702 14.1213C11.2328 14.6839 11.9959 15 12.7915 15C13.5872 15 14.3502 14.6839 14.9128 14.1213C15.4755 13.5587 15.7915 12.7956 15.7915 12C15.7915 11.2044 15.4755 10.4413 14.9128 9.87868C14.3502 9.31607 13.5872 9 12.7915 9ZM12.7915 7C14.1176 7 15.3894 7.52678 16.3271 8.46447C17.2647 9.40215 17.7915 10.6739 17.7915 12C17.7915 13.3261 17.2647 14.5979 16.3271 15.5355C15.3894 16.4732 14.1176 17 12.7915 17C11.4654 17 10.1937 16.4732 9.25599 15.5355C8.31831 14.5979 7.79153 13.3261 7.79153 12C7.79153 10.6739 8.31831 9.40215 9.25599 8.46447C10.1937 7.52678 11.4654 7 12.7915 7ZM19.2915 6.75C19.2915 7.08152 19.1598 7.39946 18.9254 7.63388C18.691 7.8683 18.373 8 18.0415 8C17.71 8 17.3921 7.8683 17.1576 7.63388C16.9232 7.39946 16.7915 7.08152 16.7915 6.75C16.7915 6.41848 16.9232 6.10054 17.1576 5.86612C17.3921 5.6317 17.71 5.5 18.0415 5.5C18.373 5.5 18.691 5.6317 18.9254 5.86612C19.1598 6.10054 19.2915 6.41848 19.2915 6.75ZM12.7915 4C10.3175 4 9.91353 4.007 8.76253 4.058C7.97853 4.095 7.45253 4.2 6.96453 4.39C6.55636 4.54037 6.18725 4.78063 5.88453 5.093C5.5718 5.39562 5.33119 5.76474 5.18053 6.173C4.99053 6.663 4.88553 7.188 4.84953 7.971C4.79753 9.075 4.79053 9.461 4.79053 12C4.79053 14.475 4.79753 14.878 4.84853 16.029C4.88553 16.812 4.99053 17.339 5.17953 17.826C5.34953 18.261 5.54953 18.574 5.88153 18.906C6.21853 19.242 6.53153 19.443 6.96153 19.609C7.45553 19.8 7.98153 19.906 8.76153 19.942C9.86553 19.994 10.2515 20 12.7905 20C15.2655 20 15.6685 19.993 16.8195 19.942C17.6015 19.905 18.1275 19.8 18.6165 19.611C19.0247 19.4606 19.3938 19.2204 19.6965 18.908C20.0335 18.572 20.2345 18.259 20.4005 17.828C20.5905 17.336 20.6965 16.81 20.7325 16.028C20.7845 14.925 20.7905 14.538 20.7905 12C20.7905 9.526 20.7835 9.122 20.7325 7.971C20.6955 7.189 20.5895 6.661 20.4005 6.173C20.2502 5.76483 20.0099 5.39572 19.6975 5.093C19.3949 4.78027 19.0258 4.53966 18.6175 4.389C18.1275 4.199 17.6015 4.094 16.8195 4.058C15.7165 4.006 15.3305 4 12.7905 4M12.7905 2C15.5075 2 15.8465 2.01 16.9135 2.06C17.9775 2.11 18.7035 2.277 19.3405 2.525C20.0005 2.779 20.5565 3.123 21.1125 3.678C21.6212 4.17773 22.0147 4.78247 22.2655 5.45C22.5125 6.087 22.6805 6.813 22.7305 7.878C22.7775 8.944 22.7905 9.283 22.7905 12C22.7905 14.717 22.7805 15.056 22.7305 16.122C22.6805 17.188 22.5125 17.912 22.2655 18.55C22.0147 19.2175 21.6212 19.8223 21.1125 20.322C20.6128 20.8307 20.0081 21.2242 19.3405 21.475C18.7035 21.722 17.9775 21.89 16.9135 21.94C15.8465 21.987 15.5075 22 12.7905 22C10.0735 22 9.73453 21.99 8.66753 21.94C7.60353 21.89 6.87853 21.722 6.24053 21.475C5.573 21.2242 4.96826 20.8307 4.46853 20.322C3.95983 19.8223 3.56634 19.2175 3.31553 18.55C3.06753 17.913 2.90053 17.187 2.85053 16.122C2.80253 15.056 2.79053 14.717 2.79053 12C2.79053 9.283 2.80053 8.944 2.85053 7.878C2.90053 6.812 3.06753 6.088 3.31553 5.45C3.56634 4.78247 3.95983 4.17773 4.46853 3.678C4.96826 3.16931 5.573 2.77582 6.24053 2.525C6.87753 2.277 7.60253 2.11 8.66753 2.06C9.73553 2.013 10.0745 2 12.7915 2" fill="#3FB6D2"/>
</svg>
