<svg width="24" height="24" viewBox="0 0 24 24" fill="none" xmlns="http://www.w3.org/2000/svg">
<path d="M2 5.75C2 5.02065 2.28973 4.32118 2.80546 3.80546C3.32118 3.28973 4.02065 3 4.75 3H6.25C6.44891 3 6.63968 3.07902 6.78033 3.21967C6.92098 3.36032 7 3.55109 7 3.75C7 3.94891 6.92098 4.13968 6.78033 4.28033C6.63968 4.42098 6.44891 4.5 6.25 4.5H4.75C4.06 4.5 3.5 5.06 3.5 5.75V7.25C3.5 7.44891 3.42098 7.63968 3.28033 7.78033C3.13968 7.92098 2.94891 8 2.75 8C2.55109 8 2.36032 7.92098 2.21967 7.78033C2.07902 7.63968 2 7.44891 2 7.25V5.75ZM17 3.75C17 3.55109 17.079 3.36032 17.2197 3.21967C17.3603 3.07902 17.5511 3 17.75 3H19.25C19.9793 3 20.6788 3.28973 21.1945 3.80546C21.7103 4.32118 22 5.02065 22 5.75V7.25C22 7.44891 21.921 7.63968 21.7803 7.78033C21.6397 7.92098 21.4489 8 21.25 8C21.0511 8 20.8603 7.92098 20.7197 7.78033C20.579 7.63968 20.5 7.44891 20.5 7.25V5.75C20.5 5.06 19.94 4.5 19.25 4.5H17.75C17.5511 4.5 17.3603 4.42098 17.2197 4.28033C17.079 4.13968 17 3.94891 17 3.75ZM2.75 16C2.94891 16 3.13968 16.079 3.28033 16.2197C3.42098 16.3603 3.5 16.5511 3.5 16.75V18.25C3.5 18.94 4.06 19.5 4.75 19.5H6.25C6.44891 19.5 6.63968 19.579 6.78033 19.7197C6.92098 19.8603 7 20.0511 7 20.25C7 20.4489 6.92098 20.6397 6.78033 20.7803C6.63968 20.921 6.44891 21 6.25 21H4.75C4.02065 21 3.32118 20.7103 2.80546 20.1945C2.28973 19.6788 2 18.9793 2 18.25V16.75C2 16.5511 2.07902 16.3603 2.21967 16.2197C2.36032 16.079 2.55109 16 2.75 16ZM21.25 16C21.4489 16 21.6397 16.079 21.7803 16.2197C21.921 16.3603 22 16.5511 22 16.75V18.25C22 18.9793 21.7103 19.6788 21.1945 20.1945C20.6788 20.7103 19.9793 21 19.25 21H17.75C17.5511 21 17.3603 20.921 17.2197 20.7803C17.079 20.6397 17 20.4489 17 20.25C17 20.0511 17.079 19.8603 17.2197 19.7197C17.3603 19.579 17.5511 19.5 17.75 19.5H19.25C19.94 19.5 20.5 18.94 20.5 18.25V16.75C20.5 16.5511 20.579 16.3603 20.7197 16.2197C20.8603 16.079 21.0511 16 21.25 16ZM5.75 7C5.94891 7 6.13968 7.07902 6.28033 7.21967C6.42098 7.36032 6.5 7.55109 6.5 7.75V16.25C6.5 16.4489 6.42098 16.6397 6.28033 16.7803C6.13968 16.921 5.94891 17 5.75 17C5.55109 17 5.36032 16.921 5.21967 16.7803C5.07902 16.6397 5 16.4489 5 16.25V7.75C5 7.55109 5.07902 7.36032 5.21967 7.21967C5.36032 7.07902 5.55109 7 5.75 7ZM10.5 7.75C10.5 7.55109 10.421 7.36032 10.2803 7.21967C10.1397 7.07902 9.94891 7 9.75 7C9.55109 7 9.36032 7.07902 9.21967 7.21967C9.07902 7.36032 9 7.55109 9 7.75V16.25C9 16.4489 9.07902 16.6397 9.21967 16.7803C9.36032 16.921 9.55109 17 9.75 17C9.94891 17 10.1397 16.921 10.2803 16.7803C10.421 16.6397 10.5 16.4489 10.5 16.25V7.75ZM13.75 7C13.9489 7 14.1397 7.07902 14.2803 7.21967C14.421 7.36032 14.5 7.55109 14.5 7.75V16.25C14.5 16.4489 14.421 16.6397 14.2803 16.7803C14.1397 16.921 13.9489 17 13.75 17C13.5511 17 13.3603 16.921 13.2197 16.7803C13.079 16.6397 13 16.4489 13 16.25V7.75C13 7.55109 13.079 7.36032 13.2197 7.21967C13.3603 7.07902 13.5511 7 13.75 7ZM18.5 7.75C18.5 7.55109 18.421 7.36032 18.2803 7.21967C18.1397 7.07902 17.9489 7 17.75 7C17.5511 7 17.3603 7.07902 17.2197 7.21967C17.079 7.36032 17 7.55109 17 7.75V16.25C17 16.4489 17.079 16.6397 17.2197 16.7803C17.3603 16.921 17.5511 17 17.75 17C17.9489 17 18.1397 16.921 18.2803 16.7803C18.421 16.6397 18.5 16.4489 18.5 16.25V7.75Z" fill="#223F46"/>
</svg>
