<svg width="24" height="24" viewBox="0 0 24 24" fill="none" xmlns="http://www.w3.org/2000/svg">
<path d="M6.1432 2.2776C4.08643 2.12702 3.69466 3.59517 3.75587 4.34807C5.02912 5.15117 4.3272 6.10484 3.81709 6.48129V8.48902C4.99239 9.34231 4.3068 10.2249 3.81709 10.5595V12.63C4.99239 13.4331 4.3068 14.3867 3.81709 14.7632V16.8337C4.94342 17.6368 4.28639 18.5486 3.81709 18.9041C3.76812 21.0625 5.6739 21.1419 6.63291 20.9119C7.36747 19.8076 8.20406 20.4518 8.53053 20.9119H10.5506C11.3341 19.8076 12.2646 20.4518 12.6318 20.9119H14.6519C15.3375 19.7072 16.3659 20.4099 16.7944 20.9119C19.047 21.2632 19.447 19.678 19.3653 18.8414C18.239 17.9881 18.896 17.1892 19.3653 16.8964V14.6728C18.9592 14.3148 18.3906 13.405 19.3653 12.63V10.5595C18.239 9.75641 18.896 8.84456 19.3653 8.48902V6.48129C18.239 5.6782 18.896 4.72452 19.3653 4.34807C19.4633 2.39053 17.6105 2.15212 16.6719 2.2776C15.8394 3.33166 15.0192 2.71679 14.7131 2.2776H12.5706C11.8361 3.38185 10.9587 2.7377 10.6118 2.2776H8.46932C7.68579 3.38185 6.83696 2.7377 6.51048 2.2776H6.1432Z" stroke="white" stroke-width="1.3"/>
<rect x="6.11399" y="4.53123" width="10.9427" height="14.1344" rx="1.35" stroke="white" stroke-width="1.3"/>
</svg>
