<svg width="33" height="34" viewBox="0 0 33 34" fill="none" xmlns="http://www.w3.org/2000/svg">
<path d="M3.30151 9.37402V26.1807L8.53027 23.1929L13.759 26.1807L17.1204 23.9399" stroke="white" stroke-width="1.5"/>
<path d="M3.30151 9.37397V9.00049L8.53027 6.38611L13.759 9.00049L18.9878 6.38611L24.2165 9.00049V11.6149" stroke="white" stroke-width="1.5"/>
<path d="M8.53027 6.38611V23.1928" stroke="white" stroke-width="1.5"/>
<path d="M13.759 9.00049V26.1807" stroke="white" stroke-width="1.5"/>
<path d="M18.9878 6.38611V14.2292" stroke="white" stroke-width="1.5"/>
<path d="M24.9635 20.1116C24.9635 21.0398 24.2947 21.7923 23.4696 21.7923C22.6445 21.7923 21.9757 21.0398 21.9757 20.1116C21.9757 19.1834 22.6445 18.4309 23.4696 18.4309C24.2947 18.4309 24.9635 19.1834 24.9635 20.1116Z" stroke="white" stroke-width="1.5"/>
<path d="M28.6984 19.9916C28.6984 21.9112 27.43 24.3105 26.041 25.9123C25.1272 26.966 24.1612 27.6746 23.4696 27.6746C22.778 27.6746 21.812 26.966 20.8982 25.9123C19.5092 24.3105 18.2408 21.9112 18.2408 19.9916C18.2408 16.8091 20.5818 14.2292 23.4696 14.2292C26.3574 14.2292 28.6984 16.8091 28.6984 19.9916Z" stroke="white" stroke-width="1.5"/>
</svg>
