<svg width="24" height="24" viewBox="0 0 24 24" fill="none" xmlns="http://www.w3.org/2000/svg">
<path d="M12.0515 11.8453L12.2498 11.7565V20.9996H11.7498V11.7565L11.949 11.8453L11.9998 11.7291L12.0515 11.8453ZM11.1658 9.8551L11.2302 9.99963H10.7498V10.2174L3.35522 6.93127L3.55835 6.47424L11.1658 9.8551ZM20.6443 6.93127L13.2498 10.2174V9.99963H12.7693L12.8337 9.85608L20.4412 6.47424L20.6443 6.93127Z" stroke="#223F46"/>
<path d="M3.00012 17.11V6.89001C3.00015 6.77403 3.03379 6.66055 3.09697 6.56329C3.16015 6.46603 3.25017 6.38917 3.35612 6.34201L11.7561 2.60801C11.8329 2.57382 11.9161 2.55615 12.0001 2.55615C12.0842 2.55615 12.1673 2.57382 12.2441 2.60801L20.6441 6.34201C20.7501 6.38917 20.8401 6.46603 20.9033 6.56329C20.9665 6.66055 21.0001 6.77403 21.0001 6.89001V17.11C21.0001 17.226 20.9665 17.3395 20.9033 17.4367C20.8401 17.534 20.7501 17.6108 20.6441 17.658L12.2441 21.392C12.1673 21.4262 12.0842 21.4439 12.0001 21.4439C11.9161 21.4439 11.8329 21.4262 11.7561 21.392L3.35612 17.658C3.25017 17.6108 3.16015 17.534 3.09697 17.4367C3.03379 17.3395 3.00015 17.226 3.00012 17.11Z" stroke="#223F46" stroke-width="1.5" stroke-linecap="round" stroke-linejoin="round"/>
<path d="M7.50012 4.5L16.1441 8.342C16.2501 8.38916 16.3401 8.46603 16.4033 8.56328C16.4665 8.66054 16.5001 8.77402 16.5001 8.89V12.5" stroke="#223F46" stroke-width="1.5" stroke-linecap="round" stroke-linejoin="round"/>
</svg>
