<svg width="24" height="24" viewBox="0 0 24 24" fill="none" xmlns="http://www.w3.org/2000/svg">
<path d="M12.0513 11.8453L12.2495 11.7564V20.9996H11.7495V11.7564L11.9487 11.8453L11.9995 11.7291L12.0513 11.8453ZM11.1655 9.85504L11.23 9.99957H10.7495V10.2173L3.35498 6.93121L3.55811 6.47418L11.1655 9.85504ZM20.644 6.93121L13.2495 10.2173V9.99957H12.769L12.8335 9.85602L20.4409 6.47418L20.644 6.93121Z" stroke="white"/>
<path d="M3 17.11V6.89001C3.00003 6.77403 3.03367 6.66055 3.09685 6.56329C3.16003 6.46603 3.25005 6.38917 3.356 6.34201L11.756 2.60801C11.8328 2.57382 11.9159 2.55615 12 2.55615C12.0841 2.55615 12.1672 2.57382 12.244 2.60801L20.644 6.34201C20.75 6.38917 20.84 6.46603 20.9032 6.56329C20.9663 6.66055 21 6.77403 21 6.89001V17.11C21 17.226 20.9663 17.3395 20.9032 17.4367C20.84 17.534 20.75 17.6108 20.644 17.658L12.244 21.392C12.1672 21.4262 12.0841 21.4439 12 21.4439C11.9159 21.4439 11.8328 21.4262 11.756 21.392L3.356 17.658C3.25005 17.6108 3.16003 17.534 3.09685 17.4367C3.03367 17.3395 3.00003 17.226 3 17.11Z" stroke="white" stroke-width="1.5" stroke-linecap="round" stroke-linejoin="round"/>
<path d="M7.5 4.5L16.144 8.342C16.25 8.38916 16.34 8.46603 16.4032 8.56328C16.4663 8.66054 16.5 8.77402 16.5 8.89V12.5" stroke="white" stroke-width="1.5" stroke-linecap="round" stroke-linejoin="round"/>
</svg>
