<svg width="76" height="24" viewBox="0 0 76 24" fill="none" xmlns="http://www.w3.org/2000/svg">
<path d="M19.371 24C19.371 24 7.57484 23.1321 0 14.9056L12.0245 7.77349C12.0245 7.77349 12.2629 18.9818 23.3923 21.3758C35.282 23.9342 36.0594 11.9892 36.0594 11.9892L38.0342 15.2854C38.0342 15.2854 33.5318 25.8238 21.4868 22.3317C12.1032 19.6115 9.64819 12.3389 9.64819 12.3389L4.37402 15.3733C4.37402 15.3733 9.57388 21.454 19.371 24Z" fill="white"/>
<path d="M24.7185 12.6128C24.7185 12.6128 19.7258 13.5057 15.4964 8.4733C15.4964 8.4733 17.1084 8.97287 20.1515 9.27337C20.1515 9.27337 16.6648 7.49978 15.1618 5.2273C15.1618 5.2273 16.371 5.79127 20.0187 6.04434C20.0187 6.04434 19.4877 5.54719 17.9046 4.70904C14.1712 2.39468 13.0615 -7.62939e-06 13.0615 -7.62939e-06C14.8632 1.60914 17.1914 0.72321 24.1721 3.06492C32.9877 6.02218 33.6969 9.26749 33.822 11.1484C33.9965 13.7771 31.4641 16.5211 31.4641 16.5211C31.4641 16.5211 32.8905 9.82522 27.4176 6.86242C21.5281 3.67459 15.8 2.30293 15.8 2.30293C15.8 2.30293 16.1366 2.87347 17.6286 3.77014C17.6286 3.77014 18.3152 4.15615 18.6548 4.32856C20.6629 5.29343 21.8866 5.74903 22.3375 6.86657C22.3375 6.86657 20.1585 7.40803 17.8565 6.61142C17.8565 6.61142 19.443 8.25242 22.4542 10.0703C22.4542 10.0703 20.515 10.6679 18.2123 9.87057C18.2123 9.87057 20.5422 12.6177 24.7185 12.6128Z" fill="white"/>
<path d="M65.679 24C64.7983 23.9803 63.9597 23.8162 63.1662 23.5115C62.3178 23.185 61.5763 22.7073 60.9412 22.0772C60.306 21.4464 59.8083 20.6529 59.4465 19.6995C59.0847 18.7446 58.9048 17.687 58.9048 16.5279V1.79492C58.9048 1.40856 59.0171 1.0904 59.2481 0.852905C59.4798 0.614372 59.7885 0.499084 60.1637 0.499084H61.7384C62.1147 0.499084 62.4227 0.61368 62.654 0.852905C62.8857 1.09109 62.9974 1.40891 62.9974 1.79492V5.91923H65.3047C65.681 5.91923 65.989 6.03486 66.22 6.2727C66.4521 6.51124 66.5644 6.82905 66.5644 7.21576V8.58326C66.5644 8.97066 66.4521 9.28813 66.22 9.52631C65.989 9.76485 65.681 9.87979 65.3047 9.87979H62.9974V16.3552C62.9974 17.6316 63.2633 18.6107 63.7835 19.3024C64.301 19.9906 64.9887 20.3351 65.8512 20.3375H65.9278C66.2543 20.3375 66.5243 20.4379 66.7258 20.646C66.9289 20.8551 67.0267 21.1328 67.0267 21.4689V22.8686C67.0267 23.2051 66.9289 23.4824 66.7258 23.6908C66.5243 23.8996 66.2543 24 65.9278 24H65.679Z" fill="white"/>
<path d="M74.6523 24C73.7709 23.9803 72.9323 23.8162 72.1388 23.5115C71.291 23.185 70.5489 22.7073 69.9144 22.0772C69.2792 21.4464 68.7809 20.6529 68.4198 19.6995C68.0586 18.7446 67.8781 17.687 67.8781 16.5279V1.79492C67.8781 1.40856 67.9904 1.0904 68.2214 0.852905C68.453 0.614372 68.7617 0.499084 69.1363 0.499084H70.711C71.0873 0.499084 71.396 0.61368 71.6273 0.852905C71.859 1.09109 71.9706 1.40891 71.9706 1.79492V5.91923H74.278C74.6536 5.91923 74.9623 6.03486 75.1933 6.2727C75.4253 6.51124 75.5376 6.82905 75.5376 7.21576V8.58326C75.5376 8.97066 75.4253 9.28813 75.1933 9.52631C74.9623 9.76485 74.6536 9.87979 74.278 9.87979H71.9706V16.3552C71.9706 17.6316 72.2366 18.6107 72.7568 19.3024C73.2743 19.9906 73.9613 20.3351 74.8238 20.3375H74.9011C75.2276 20.3375 75.4976 20.4379 75.699 20.646C75.9021 20.8551 76 21.1328 76 21.4689V22.8686C76 23.2051 75.9021 23.4824 75.699 23.6908C75.4976 23.8996 75.2276 24 74.9011 24H74.6523Z" fill="white"/>
<path d="M57.0745 5.23087C56.7817 4.4533 56.4199 3.78409 55.9894 3.22428C55.56 2.66516 55.0624 2.18221 54.4968 1.77473C53.9299 1.36656 53.2846 1.05186 52.562 0.830984C51.8384 0.610107 51.0818 0.499319 50.2923 0.499319H43.6573C43.2813 0.499319 42.9726 0.614952 42.7416 0.852793C42.51 1.09167 42.3983 1.40914 42.3983 1.79585V22.7034C42.3983 23.0897 42.51 23.4079 42.7416 23.6464C42.9726 23.8846 43.2813 23.9995 43.6573 23.9995H45.3325C45.7081 23.9995 46.0161 23.8846 46.2481 23.6464C46.4798 23.4079 46.5914 23.0904 46.5914 22.7034V15.1333H50.2923C51.3535 15.1333 52.3875 14.918 53.3915 14.488C54.3983 14.0573 55.2258 13.4276 55.8721 12.5984C56.5143 11.7755 56.9505 10.9539 57.1778 10.1352C57.4031 9.32402 57.5157 8.56791 57.5157 7.86789C57.5157 6.89264 57.3694 6.01329 57.0745 5.23087ZM53.6363 8.02057C53.6363 9.69273 52.3195 11.0485 50.6954 11.0485H46.5914V4.99303H50.6954C52.3195 4.99303 53.6363 6.34876 53.6363 8.02057Z" fill="white"/>
</svg>
