<svg width="50" height="50" viewBox="0 0 50 50" fill="none" xmlns="http://www.w3.org/2000/svg">
<path d="M50 25C50 38.8071 38.8071 50 25 50C11.1929 50 0 38.8071 0 25C0 11.1929 11.1929 0 25 0C38.8071 0 50 11.1929 50 25ZM4.95062 25C4.95062 36.073 13.927 45.0494 25 45.0494C36.073 45.0494 45.0494 36.073 45.0494 25C45.0494 13.927 36.073 4.95062 25 4.95062C13.927 4.95062 4.95062 13.927 4.95062 25Z" fill="#A1ADAF"/>
<path d="M50 25C50 38.8071 38.8071 50 25 50C11.1929 50 0 38.8071 0 25C0 11.1929 11.1929 0 25 0C38.8071 0 50 11.1929 50 25ZM4.95062 25C4.95062 36.073 13.927 45.0494 25 45.0494C36.073 45.0494 45.0494 36.073 45.0494 25C45.0494 13.927 36.073 4.95062 25 4.95062C13.927 4.95062 4.95062 13.927 4.95062 25Z" fill="#3FB6D2"/>
<path d="M12.872 21.504L11.632 20.48C12.168 19.752 13.184 18.608 15.208 18.608C17.528 18.608 18.92 20.104 18.92 22.208C18.92 23.616 18.12 24.6 17.432 25.344L14.624 28.352H19.224V30H12.056V28.64L16.104 24.336C16.728 23.664 17.104 23 17.104 22.2C17.104 21.08 16.368 20.264 15.16 20.264C14.024 20.264 13.424 20.832 12.872 21.504ZM28.5406 17.68L21.7486 31.6H19.9006L26.6926 17.68H28.5406ZM30.0751 21.504L28.8351 20.48C29.3711 19.752 30.3871 18.608 32.4111 18.608C34.7311 18.608 36.1231 20.104 36.1231 22.208C36.1231 23.616 35.3231 24.6 34.6351 25.344L31.8271 28.352H36.4271V30H29.2591V28.64L33.3071 24.336C33.9311 23.664 34.3071 23 34.3071 22.2C34.3071 21.08 33.5711 20.264 32.3631 20.264C31.2271 20.264 30.6271 20.832 30.0751 21.504Z" fill="#223F46"/>
</svg>
