<svg width="50" height="50" viewBox="0 0 50 50" fill="none" xmlns="http://www.w3.org/2000/svg">
<path d="M50 25C50 38.8071 38.8071 50 25 50C11.1929 50 0 38.8071 0 25C0 11.1929 11.1929 0 25 0C38.8071 0 50 11.1929 50 25ZM4.95062 25C4.95062 36.073 13.927 45.0494 25 45.0494C36.073 45.0494 45.0494 36.073 45.0494 25C45.0494 13.927 36.073 4.95062 25 4.95062C13.927 4.95062 4.95062 13.927 4.95062 25Z" fill="#A1ADAF"/>
<path d="M25 2.47531C25 1.10823 26.1109 -0.0126947 27.4713 0.122443C29.9066 0.364366 32.2978 0.963043 34.5671 1.90301C37.6002 3.15938 40.3562 5.00087 42.6777 7.32233C44.9991 9.6438 46.8406 12.3998 48.097 15.4329C49.3534 18.4661 50 21.717 50 25C50 28.2831 49.3534 31.534 48.097 34.5671C46.8406 37.6002 44.9991 40.3562 42.6777 42.6777C40.3562 44.9991 37.6002 46.8406 34.5671 48.097C32.2978 49.037 29.9066 49.6356 27.4713 49.8776C26.1109 50.0127 25 48.8918 25 47.5247C25 46.1576 26.1124 45.0651 27.469 44.8968C29.2537 44.6753 31.0042 44.2143 32.6726 43.5232C35.1051 42.5156 37.3153 41.0388 39.177 39.1771C41.0388 37.3153 42.5156 35.1051 43.5232 32.6726C44.5308 30.2401 45.0494 27.6329 45.0494 25C45.0494 22.3671 44.5308 19.7599 43.5232 17.3274C42.5156 14.8949 41.0388 12.6847 39.1771 10.823C37.3153 8.96119 35.1051 7.48437 32.6726 6.47679C31.0042 5.78573 29.2537 5.32469 27.469 5.10323C26.1124 4.93488 25 3.84239 25 2.47531Z" fill="#3FB6D2"/>
<path d="M16.072 18.624V30H14.336V21.144L11.488 22.368V20.56L16.072 18.624ZM26.025 17.68L19.233 31.6H17.385L24.177 17.68H26.025ZM27.5595 21.504L26.3195 20.48C26.8555 19.752 27.8715 18.608 29.8955 18.608C32.2155 18.608 33.6075 20.104 33.6075 22.208C33.6075 23.616 32.8075 24.6 32.1195 25.344L29.3115 28.352H33.9115V30H26.7435V28.64L30.7915 24.336C31.4155 23.664 31.7915 23 31.7915 22.2C31.7915 21.08 31.0555 20.264 29.8475 20.264C28.7115 20.264 28.1115 20.832 27.5595 21.504Z" fill="#223F46"/>
</svg>
